<?xml version="1.0" encoding="UTF-8" standalone="no"?>
<!-- Created with Inkscape (http://www.inkscape.org/) -->

<svg
   version="1.1"
   id="svg1"
   width="150"
   height="140"
   viewBox="0 0 150 140"
   sodipodi:docname="exit.svg"
   inkscape:version="1.3.2 (1:1.3.2+202311252150+091e20ef0f)"
   xmlns:inkscape="http://www.inkscape.org/namespaces/inkscape"
   xmlns:sodipodi="http://sodipodi.sourceforge.net/DTD/sodipodi-0.dtd"
   xmlns="http://www.w3.org/2000/svg"
   xmlns:svg="http://www.w3.org/2000/svg">
  <defs
     id="defs1" />
  <sodipodi:namedview
     id="namedview1"
     pagecolor="#ffffff"
     bordercolor="#000000"
     borderopacity="0.25"
     inkscape:showpageshadow="2"
     inkscape:pageopacity="0.0"
     inkscape:pagecheckerboard="0"
     inkscape:deskcolor="#d1d1d1"
     inkscape:zoom="5.7928571"
     inkscape:cx="74.919852"
     inkscape:cy="70"
     inkscape:window-width="1850"
     inkscape:window-height="1011"
     inkscape:window-x="1920"
     inkscape:window-y="32"
     inkscape:window-maximized="1"
     inkscape:current-layer="g1">
    <inkscape:page
       x="0"
       y="0"
       inkscape:label="1"
       id="page1"
       width="150"
       height="140"
       margin="0"
       bleed="0"
       inkscape:export-filename="../exit.png"
       inkscape:export-xdpi="99.464355"
       inkscape:export-ydpi="99.464355" />
  </sodipodi:namedview>
  <g
     id="g1"
     inkscape:groupmode="layer"
     inkscape:label="1">
    <g
       id="g3"
       transform="matrix(0.29956141,0,0,0.29956141,-18.818703,-56.779519)"
       inkscape:export-filename="g3.png"
       inkscape:export-xdpi="99.464355"
       inkscape:export-ydpi="99.464355"
       style="fill:#552200">
      <g
         id="group-R5"
         transform="matrix(-0.38849801,0,0,-0.38849801,617.2003,729.25282)"
         style="fill:#552200">
        <path
           id="path2"
           d="M 8588.3,9890 H 5732.85 c -1054.11,0 -1911.7,-863.43 -1911.7,-1924.73 v -462.91 h 967.95 v 462.91 c 0,523.94 423.36,950.18 943.75,950.18 H 8588.3 c 520.39,0 943.75,-426.24 943.75,-950.18 V 3774.73 c 0,-523.94 -423.36,-950.18 -943.75,-950.18 H 5732.85 c -520.39,0 -943.75,426.24 -943.75,950.18 v 560.36 H 3821.15 V 3774.73 C 3821.15,2713.44 4678.74,1850 5732.85,1850 H 8588.3 c 1054.11,0 1911.7,863.44 1911.7,1924.73 V 7965.27 C 10500,9026.57 9642.41,9890 8588.3,9890"
           style="fill:#552200;fill-opacity:1;fill-rule:nonzero;stroke:none"
           transform="matrix(0.13333333,0,0,-0.13333333,0,1600)" />
        <path
           id="path3"
           d="M 6290,6712.88 H 3418.65 V 7794.73 L 1170,5901.5 3418.65,3969.64 V 5167.39 H 6290 v 1545.49"
           style="fill:#552200;fill-opacity:1;fill-rule:nonzero;stroke:none"
           transform="matrix(0.13333333,0,0,-0.13333333,0,1600)" />
      </g>
    </g>
  </g>
</svg>
