<?xml version="1.0" encoding="UTF-8" standalone="no"?>
<!-- Created with Inkscape (http://www.inkscape.org/) -->

<svg
   version="1.1"
   id="svg1"
   width="150"
   height="140"
   viewBox="0 0 150 140"
   xmlns="http://www.w3.org/2000/svg"
   xmlns:svg="http://www.w3.org/2000/svg">
  <defs
     id="defs1" />
  <g
     id="g1">
    <path
       id="path3"
       style="fill:#552200;fill-opacity:1;fill-rule:nonzero;stroke:none;stroke-width:0.00866088"
       d="m 57.903284,51.750222 h 24.868419 v 9.369774 L 102.247,44.722956 82.771703,27.991346 V 38.364917 H 57.903284 V 51.750222 M 37.99798,79.26688 h 24.730714 c 9.129522,0 16.557006,-7.478062 16.557006,-16.669857 v -4.009208 h -8.3833 v 4.009208 c 0,4.53778 -3.66667,8.229393 -8.173706,8.229393 H 37.99798 c -4.507035,0 -8.173706,-3.691613 -8.173706,-8.229393 V 26.303254 c 0,-4.537782 3.666671,-8.229396 8.173706,-8.229396 h 24.730714 c 4.507036,0 8.173706,3.691614 8.173706,8.229396 v 4.853212 h 8.3833 v -4.853212 c 0,-9.191707 -7.427484,-16.6698578 -16.557006,-16.6698578 H 37.99798 c -9.129521,0 -16.557006,7.4781508 -16.557006,16.6698578 v 36.293769 c 0,9.191795 7.427485,16.669857 16.557006,16.669857" />
  </g>
</svg>
