<?xml version="1.0" encoding="UTF-8" standalone="no"?>
<!-- Created with Inkscape (http://www.inkscape.org/) -->

<svg
   version="1.1"
   id="svg1"
   width="491.51999"
   height="491.51999"
   viewBox="0 0 491.51999 491.51999"
   xmlns="http://www.w3.org/2000/svg"
   xmlns:svg="http://www.w3.org/2000/svg">
  <defs
     id="defs1" />
  <g
     id="g1">
    <g
       id="group-R5">
      <path
         id="path2"
         d="m 2479.12,3455.78 h -21.3 c -265.76,-0.01 -517.85,-104.17 -705.83,-292.14 -187.99,-187.99 -292.37,-440.02 -292.37,-705.83 0,-265.81 104.38,-517.84 292.37,-705.82 187.99,-187.99 440.01,-292.37 705.82,-292.37 265.81,0 517.84,104.38 705.83,292.37 187.98,187.97 292.14,440.07 292.14,705.83 v 21.3 c -5.42,257.94 -109.18,501.56 -292.14,684.52 -182.95,182.95 -426.57,286.72 -684.52,292.14 z m 847.44,-129.23 c 239.89,-239.89 359.84,-554.32 359.84,-868.74 h -0.22 c 0,-314.55 -119.89,-628.99 -359.63,-868.73 -239.89,-239.91 -554.32,-359.86 -868.74,-359.86 -314.42,0 -628.84,119.95 -868.74,359.86 -239.9,239.89 -359.85,554.32 -359.85,868.73 0,314.42 119.95,628.84 359.85,868.74 239.75,239.75 554.19,359.63 868.75,359.63 v 0.22 c 314.41,0 628.84,-119.95 868.74,-359.85 v 0"
         style="fill:#191716;fill-opacity:1;fill-rule:nonzero;stroke:none"
         transform="matrix(0.13333333,0,0,-0.13333333,0,491.52)" />
      <path
         id="path3"
         d="m 1019.57,1492.88 473.53,-473.53 v 0.01 l 0.29,-0.3 40.43,-40.431 -40.72,-40.731 -110.99,-110.976 v 0 L 669.781,114.582 C 593.395,38.1992 492.766,0 392.184,0 291.605,0 190.977,38.1992 114.59,114.582 38.2031,190.98 0.00390625,291.609 0,392.18 0.00390625,492.77 38.2031,593.391 114.59,669.781 l 712.328,712.329 110.988,110.98 -0.008,0.01 0.309,0.29 40.422,40.43 40.421,-40.43 0.31,-0.29 0.21,-0.22"
         style="fill:#191716;fill-opacity:1;fill-rule:nonzero;stroke:none"
         transform="matrix(0.13333333,0,0,-0.13333333,0,491.52)" />
      <path
         id="path4"
         d="m 1045.37,1399.19 353.83,-353.83 408.19,408.2 c -62.81,52.97 -124.4,109.48 -184.37,169.45 -59.97,59.97 -116.49,121.57 -169.47,184.39 l -408.18,-408.21"
         style="fill:#191716;fill-opacity:1;fill-rule:evenodd;stroke:none"
         transform="matrix(0.13333333,0,0,-0.13333333,0,491.52)" />
      <path
         id="path5"
         d="m 1913.04,3002.58 c 71.72,71.72 155.93,127.8 247.38,166.04 91.96,38.46 191.06,59.13 292.02,59.82 31.69,0.12 57.27,25.91 57.14,57.6 -0.11,31.68 -25.9,57.27 -57.59,57.15 -116.69,-0.79 -230.59,-24.42 -335.68,-68.37 -105.6,-44.16 -202.54,-108.6 -284.72,-190.79 -31.64,-31.64 -61.4,-66.57 -89.03,-104.44 -27.25,-37.34 -51.36,-76.32 -72.09,-116.6 -14.54,-28.2 -3.45,-62.86 24.75,-77.4 28.21,-14.54 62.86,-3.46 77.4,24.75 18.52,35.99 39.47,70 62.63,101.75 22.78,31.21 48.79,61.48 77.79,90.49"
         style="fill:#191716;fill-opacity:1;fill-rule:evenodd;stroke:none"
         transform="matrix(0.13333333,0,0,-0.13333333,0,491.52)" />
    </g>
  </g>
</svg>
